<mxfile host="Electron" modified="2024-03-11T15:57:42.768Z" agent="Mozilla/5.0 (Windows NT 10.0; Win64; x64) AppleWebKit/537.36 (KHTML, like Gecko) draw.io/23.1.5 Chrome/120.0.6099.109 Electron/28.1.0 Safari/537.36" etag="EsHVFiqgUvypWGQx1tRK" version="23.1.5" type="device">
  <diagram name="Page-1" id="6OpU2e06D6jPcyDLrwMJ">
    <mxGraphModel dx="1434" dy="844" grid="1" gridSize="10" guides="1" tooltips="1" connect="1" arrows="1" fold="1" page="1" pageScale="1" pageWidth="1100" pageHeight="850" math="0" shadow="0">
      <root>
        <mxCell id="0" />
        <mxCell id="1" parent="0" />
        <mxCell id="-tNWzfhsYgZVXzEqGD29-8" value="" style="rounded=0;whiteSpace=wrap;html=1;fillColor=none;dashed=1;dashPattern=12 12;" vertex="1" parent="1">
          <mxGeometry x="124" y="292" width="130" height="226" as="geometry" />
        </mxCell>
        <mxCell id="-tNWzfhsYgZVXzEqGD29-1" value="2-environments" style="shape=folder;fontStyle=1;spacingTop=10;tabWidth=40;tabHeight=14;tabPosition=left;html=1;whiteSpace=wrap;" vertex="1" parent="1">
          <mxGeometry x="124" y="72" width="110" height="50" as="geometry" />
        </mxCell>
        <mxCell id="-tNWzfhsYgZVXzEqGD29-2" value="Development" style="shape=folder;fontStyle=1;spacingTop=10;tabWidth=40;tabHeight=14;tabPosition=left;html=1;whiteSpace=wrap;" vertex="1" parent="1">
          <mxGeometry x="139" y="442" width="80" height="50" as="geometry" />
        </mxCell>
        <mxCell id="-tNWzfhsYgZVXzEqGD29-3" value="Non-Prod" style="shape=folder;fontStyle=1;spacingTop=10;tabWidth=40;tabHeight=14;tabPosition=left;html=1;whiteSpace=wrap;" vertex="1" parent="1">
          <mxGeometry x="139" y="374" width="80" height="50" as="geometry" />
        </mxCell>
        <mxCell id="-tNWzfhsYgZVXzEqGD29-4" value="Production" style="shape=folder;fontStyle=1;spacingTop=10;tabWidth=40;tabHeight=14;tabPosition=left;html=1;whiteSpace=wrap;" vertex="1" parent="1">
          <mxGeometry x="139" y="302" width="80" height="50" as="geometry" />
        </mxCell>
        <mxCell id="-tNWzfhsYgZVXzEqGD29-5" value="modules" style="shape=folder;fontStyle=1;spacingTop=10;tabWidth=40;tabHeight=14;tabPosition=left;html=1;whiteSpace=wrap;" vertex="1" parent="1">
          <mxGeometry x="384" y="82" width="70" height="50" as="geometry" />
        </mxCell>
        <mxCell id="-tNWzfhsYgZVXzEqGD29-6" value="Envs" style="shape=folder;fontStyle=1;spacingTop=10;tabWidth=40;tabHeight=14;tabPosition=left;html=1;whiteSpace=wrap;" vertex="1" parent="1">
          <mxGeometry x="134" y="178" width="80" height="50" as="geometry" />
        </mxCell>
        <mxCell id="-tNWzfhsYgZVXzEqGD29-7" value="1" style="endArrow=open;html=1;endSize=12;startArrow=diamondThin;startSize=14;startFill=1;edgeStyle=orthogonalEdgeStyle;align=left;verticalAlign=bottom;rounded=0;" edge="1" parent="1">
          <mxGeometry x="-1" y="3" relative="1" as="geometry">
            <mxPoint x="154" y="117" as="sourcePoint" />
            <mxPoint x="154.5" y="178" as="targetPoint" />
            <Array as="points">
              <mxPoint x="154" y="137" />
              <mxPoint x="154" y="367" />
            </Array>
          </mxGeometry>
        </mxCell>
        <mxCell id="-tNWzfhsYgZVXzEqGD29-9" value="1" style="endArrow=open;html=1;endSize=12;startArrow=diamondThin;startSize=14;startFill=1;edgeStyle=orthogonalEdgeStyle;align=left;verticalAlign=bottom;rounded=0;" edge="1" parent="1">
          <mxGeometry x="-1" y="3" relative="1" as="geometry">
            <mxPoint x="154" y="228" as="sourcePoint" />
            <mxPoint x="154.5" y="289" as="targetPoint" />
            <Array as="points">
              <mxPoint x="154" y="248" />
              <mxPoint x="154" y="478" />
            </Array>
          </mxGeometry>
        </mxCell>
        <object label="env-baseline" Description="Provides as examples" id="-tNWzfhsYgZVXzEqGD29-10">
          <mxCell style="shape=module;align=left;spacingLeft=20;align=center;verticalAlign=top;whiteSpace=wrap;html=1;" vertex="1" parent="1">
            <mxGeometry x="354" y="172" width="90" height="42" as="geometry" />
          </mxCell>
        </object>
        <object label="assured_workload.tf" Description="Provides as examples" id="-tNWzfhsYgZVXzEqGD29-11">
          <mxCell style="shape=module;align=left;spacingLeft=20;align=center;verticalAlign=top;whiteSpace=wrap;html=1;" vertex="1" parent="1">
            <mxGeometry x="354" y="272" width="160" height="42" as="geometry" />
          </mxCell>
        </object>
        <mxCell id="-tNWzfhsYgZVXzEqGD29-12" value="1" style="endArrow=open;html=1;endSize=12;startArrow=diamondThin;startSize=14;startFill=1;edgeStyle=orthogonalEdgeStyle;align=left;verticalAlign=bottom;rounded=0;entryX=0;entryY=0;entryDx=0;entryDy=15;entryPerimeter=0;exitX=0.854;exitY=-0.009;exitDx=0;exitDy=0;exitPerimeter=0;" edge="1" parent="1" source="-tNWzfhsYgZVXzEqGD29-8" target="-tNWzfhsYgZVXzEqGD29-10">
          <mxGeometry x="-0.8306" y="-10" relative="1" as="geometry">
            <mxPoint x="234" y="268" as="sourcePoint" />
            <mxPoint x="324" y="183" as="targetPoint" />
            <Array as="points">
              <mxPoint x="235" y="282" />
              <mxPoint x="234" y="282" />
              <mxPoint x="234" y="187" />
            </Array>
            <mxPoint as="offset" />
          </mxGeometry>
        </mxCell>
        <object label="folders.tf" Description="Provides as examples" id="-tNWzfhsYgZVXzEqGD29-13">
          <mxCell style="shape=module;align=left;spacingLeft=20;align=center;verticalAlign=top;whiteSpace=wrap;html=1;" vertex="1" parent="1">
            <mxGeometry x="354" y="342" width="160" height="42" as="geometry" />
          </mxCell>
        </object>
        <object label="iam.tf" Description="Provides as examples" id="-tNWzfhsYgZVXzEqGD29-14">
          <mxCell style="shape=module;align=left;spacingLeft=20;align=center;verticalAlign=top;whiteSpace=wrap;html=1;" vertex="1" parent="1">
            <mxGeometry x="354" y="422" width="160" height="42" as="geometry" />
          </mxCell>
        </object>
        <object label="kms.tf" Description="Provides as examples" id="-tNWzfhsYgZVXzEqGD29-15">
          <mxCell style="shape=module;align=left;spacingLeft=20;align=center;verticalAlign=top;whiteSpace=wrap;html=1;" vertex="1" parent="1">
            <mxGeometry x="354" y="512" width="160" height="42" as="geometry" />
          </mxCell>
        </object>
        <object label="monitoring.tf" Description="Provides as examples" id="-tNWzfhsYgZVXzEqGD29-16">
          <mxCell style="shape=module;align=left;spacingLeft=20;align=center;verticalAlign=top;whiteSpace=wrap;html=1;" vertex="1" parent="1">
            <mxGeometry x="354" y="602" width="160" height="42" as="geometry" />
          </mxCell>
        </object>
        <object label="secrets.tf" Description="Provides as examples" id="-tNWzfhsYgZVXzEqGD29-17">
          <mxCell style="shape=module;align=left;spacingLeft=20;align=center;verticalAlign=top;whiteSpace=wrap;html=1;" vertex="1" parent="1">
            <mxGeometry x="355" y="692" width="160" height="42" as="geometry" />
          </mxCell>
        </object>
        <mxCell id="-tNWzfhsYgZVXzEqGD29-18" value="&lt;p style=&quot;margin: 6px 0px 0px;&quot;&gt;&lt;span style=&quot;background-color: initial;&quot;&gt;assured_workloads_workload&lt;/span&gt;&lt;br&gt;&lt;/p&gt;&lt;p style=&quot;margin: 6px 0px 0px;&quot;&gt;&lt;span style=&quot;background-color: rgb(255, 255, 0);&quot;&gt;workload&lt;/span&gt;&lt;/p&gt;" style="align=left;overflow=fill;html=1;dropTarget=0;whiteSpace=wrap;" vertex="1" parent="1">
          <mxGeometry x="634" y="271" width="190" height="44" as="geometry" />
        </mxCell>
        <mxCell id="-tNWzfhsYgZVXzEqGD29-19" value="" style="shape=component;jettyWidth=8;jettyHeight=4;" vertex="1" parent="-tNWzfhsYgZVXzEqGD29-18">
          <mxGeometry x="1" width="20" height="20" relative="1" as="geometry">
            <mxPoint x="-24" y="4" as="offset" />
          </mxGeometry>
        </mxCell>
        <mxCell id="-tNWzfhsYgZVXzEqGD29-20" value="&lt;p style=&quot;border-color: var(--border-color); color: rgb(0, 0, 0); font-family: Helvetica; font-size: 12px; font-style: normal; font-variant-ligatures: normal; font-variant-caps: normal; font-weight: 400; letter-spacing: normal; orphans: 2; text-align: left; text-indent: 0px; text-transform: none; widows: 2; word-spacing: 0px; -webkit-text-stroke-width: 0px; text-decoration-thickness: initial; text-decoration-style: initial; text-decoration-color: initial; margin: 6px 0px 0px;&quot;&gt;&lt;span style=&quot;background-color: rgb(255, 255, 0);&quot;&gt;Production only and mandatory (always provisioned&lt;/span&gt;&lt;/p&gt;" style="text;whiteSpace=wrap;html=1;" vertex="1" parent="1">
          <mxGeometry x="355" y="222" width="180" height="30" as="geometry" />
        </mxCell>
        <mxCell id="-tNWzfhsYgZVXzEqGD29-21" value="" style="endArrow=block;dashed=1;endFill=0;endSize=12;html=1;rounded=0;entryX=0;entryY=0.5;entryDx=0;entryDy=0;exitX=1;exitY=0.5;exitDx=0;exitDy=0;" edge="1" parent="1" source="-tNWzfhsYgZVXzEqGD29-11" target="-tNWzfhsYgZVXzEqGD29-18">
          <mxGeometry width="160" relative="1" as="geometry">
            <mxPoint x="952" y="343" as="sourcePoint" />
            <mxPoint x="950" y="385" as="targetPoint" />
          </mxGeometry>
        </mxCell>
        <mxCell id="-tNWzfhsYgZVXzEqGD29-26" value="&lt;p style=&quot;margin: 6px 0px 0px;&quot;&gt;&lt;span style=&quot;background-color: initial;&quot;&gt;folder : &lt;/span&gt;&lt;span style=&quot;background-color: rgb(255, 255, 0);&quot;&gt;env&lt;/span&gt;&lt;br&gt;&lt;/p&gt;" style="align=left;overflow=fill;html=1;dropTarget=0;whiteSpace=wrap;" vertex="1" parent="1">
          <mxGeometry x="634" y="348" width="90" height="30" as="geometry" />
        </mxCell>
        <mxCell id="-tNWzfhsYgZVXzEqGD29-27" value="" style="shape=component;jettyWidth=8;jettyHeight=4;" vertex="1" parent="-tNWzfhsYgZVXzEqGD29-26">
          <mxGeometry x="1" width="20" height="20" relative="1" as="geometry">
            <mxPoint x="-24" y="4" as="offset" />
          </mxGeometry>
        </mxCell>
        <mxCell id="-tNWzfhsYgZVXzEqGD29-28" value="&lt;p style=&quot;margin: 6px 0px 0px;&quot;&gt;tags_tag_binding&lt;/p&gt;&lt;p style=&quot;margin: 6px 0px 0px;&quot;&gt;&lt;span style=&quot;background-color: rgb(255, 255, 0);&quot;&gt;folder_env&lt;/span&gt;&lt;/p&gt;&lt;p style=&quot;margin: 6px 0px 0px;&quot;&gt;&lt;br&gt;&lt;/p&gt;" style="align=left;overflow=fill;html=1;dropTarget=0;whiteSpace=wrap;" vertex="1" parent="1">
          <mxGeometry x="763" y="341" width="131" height="44" as="geometry" />
        </mxCell>
        <mxCell id="-tNWzfhsYgZVXzEqGD29-29" value="" style="shape=component;jettyWidth=8;jettyHeight=4;" vertex="1" parent="-tNWzfhsYgZVXzEqGD29-28">
          <mxGeometry x="1" width="20" height="20" relative="1" as="geometry">
            <mxPoint x="-24" y="4" as="offset" />
          </mxGeometry>
        </mxCell>
        <mxCell id="-tNWzfhsYgZVXzEqGD29-30" value="" style="rounded=0;whiteSpace=wrap;html=1;fillColor=none;dashed=1;dashPattern=12 12;" vertex="1" parent="1">
          <mxGeometry x="624" y="332" width="290" height="60" as="geometry" />
        </mxCell>
        <mxCell id="-tNWzfhsYgZVXzEqGD29-31" value="" style="endArrow=block;dashed=1;endFill=0;endSize=12;html=1;rounded=0;entryX=0;entryY=0.5;entryDx=0;entryDy=0;exitX=1;exitY=0.5;exitDx=0;exitDy=0;" edge="1" parent="1" target="-tNWzfhsYgZVXzEqGD29-30">
          <mxGeometry width="160" relative="1" as="geometry">
            <mxPoint x="514" y="361.5" as="sourcePoint" />
            <mxPoint x="634" y="361.5" as="targetPoint" />
          </mxGeometry>
        </mxCell>
        <mxCell id="-tNWzfhsYgZVXzEqGD29-35" value="" style="endArrow=none;dashed=1;html=1;dashPattern=1 3;strokeWidth=2;rounded=0;entryX=-0.012;entryY=0.69;entryDx=0;entryDy=0;entryPerimeter=0;" edge="1" parent="1" target="-tNWzfhsYgZVXzEqGD29-11">
          <mxGeometry width="50" height="50" relative="1" as="geometry">
            <mxPoint x="219" y="409.4848484848485" as="sourcePoint" />
            <mxPoint x="319" y="341" as="targetPoint" />
          </mxGeometry>
        </mxCell>
        <mxCell id="-tNWzfhsYgZVXzEqGD29-36" value="&lt;p style=&quot;margin: 6px 0px 0px;&quot;&gt;&lt;span style=&quot;background-color: initial;&quot;&gt;project_iam_member&lt;/span&gt;&lt;br&gt;&lt;/p&gt;&lt;p style=&quot;margin: 6px 0px 0px;&quot;&gt;&lt;span style=&quot;background-color: rgb(255, 255, 0);&quot;&gt;monitoring_editor&lt;/span&gt;&lt;/p&gt;" style="align=left;overflow=fill;html=1;dropTarget=0;whiteSpace=wrap;" vertex="1" parent="1">
          <mxGeometry x="624" y="415" width="190" height="44" as="geometry" />
        </mxCell>
        <mxCell id="-tNWzfhsYgZVXzEqGD29-37" value="" style="shape=component;jettyWidth=8;jettyHeight=4;" vertex="1" parent="-tNWzfhsYgZVXzEqGD29-36">
          <mxGeometry x="1" width="20" height="20" relative="1" as="geometry">
            <mxPoint x="-24" y="4" as="offset" />
          </mxGeometry>
        </mxCell>
        <mxCell id="-tNWzfhsYgZVXzEqGD29-38" value="" style="endArrow=block;dashed=1;endFill=0;endSize=12;html=1;rounded=0;entryX=0;entryY=0.5;entryDx=0;entryDy=0;exitX=1;exitY=0.5;exitDx=0;exitDy=0;" edge="1" parent="1">
          <mxGeometry width="160" relative="1" as="geometry">
            <mxPoint x="515" y="441.5" as="sourcePoint" />
            <mxPoint x="625" y="442" as="targetPoint" />
          </mxGeometry>
        </mxCell>
        <mxCell id="-tNWzfhsYgZVXzEqGD29-39" value="project-factory&lt;br&gt;&lt;span style=&quot;background-color: rgb(255, 255, 0);&quot;&gt;env_kms&lt;br&gt;&lt;/span&gt;" style="shape=module;align=left;spacingLeft=20;align=center;verticalAlign=top;whiteSpace=wrap;html=1;fillColor=#FFCCE6;" vertex="1" parent="1">
          <mxGeometry x="645.57" y="504" width="125" height="40" as="geometry" />
        </mxCell>
        <mxCell id="-tNWzfhsYgZVXzEqGD29-42" value="Hardcoded billing acct ID, etc" style="rounded=0;whiteSpace=wrap;html=1;fillColor=#ffe6cc;strokeColor=none;" vertex="1" parent="1">
          <mxGeometry x="624" y="468" width="160.14" height="34" as="geometry" />
        </mxCell>
        <mxCell id="-tNWzfhsYgZVXzEqGD29-43" value="1" style="endArrow=open;html=1;endSize=12;startArrow=diamondThin;startSize=14;startFill=1;edgeStyle=orthogonalEdgeStyle;align=left;verticalAlign=bottom;rounded=0;exitX=1;exitY=0.5;exitDx=0;exitDy=0;entryX=0;entryY=0.675;entryDx=0;entryDy=0;entryPerimeter=0;" edge="1" parent="1" source="-tNWzfhsYgZVXzEqGD29-15" target="-tNWzfhsYgZVXzEqGD29-39">
          <mxGeometry x="-1" y="3" relative="1" as="geometry">
            <mxPoint x="784.14" y="592.5" as="sourcePoint" />
            <mxPoint x="624" y="613" as="targetPoint" />
            <Array as="points">
              <mxPoint x="554" y="533" />
              <mxPoint x="554" y="532" />
              <mxPoint x="642" y="532" />
            </Array>
          </mxGeometry>
        </mxCell>
        <mxCell id="-tNWzfhsYgZVXzEqGD29-46" value="project-factory&lt;br&gt;&lt;span style=&quot;background-color: rgb(255, 255, 0);&quot;&gt;monitoring_project&lt;br&gt;&lt;/span&gt;" style="shape=module;align=left;spacingLeft=20;align=center;verticalAlign=top;whiteSpace=wrap;html=1;fillColor=#FFCCE6;" vertex="1" parent="1">
          <mxGeometry x="640.5699999999999" y="596" width="125" height="40" as="geometry" />
        </mxCell>
        <mxCell id="-tNWzfhsYgZVXzEqGD29-47" value="Hardcoded billing acct ID, etc" style="rounded=0;whiteSpace=wrap;html=1;fillColor=#ffe6cc;strokeColor=none;" vertex="1" parent="1">
          <mxGeometry x="624" y="562" width="160.14" height="34" as="geometry" />
        </mxCell>
        <mxCell id="-tNWzfhsYgZVXzEqGD29-48" value="1" style="endArrow=open;html=1;endSize=12;startArrow=diamondThin;startSize=14;startFill=1;edgeStyle=orthogonalEdgeStyle;align=left;verticalAlign=bottom;rounded=0;exitX=1;exitY=0.5;exitDx=0;exitDy=0;" edge="1" parent="1">
          <mxGeometry x="-1" y="3" relative="1" as="geometry">
            <mxPoint x="514" y="619" as="sourcePoint" />
            <mxPoint x="642" y="618" as="targetPoint" />
            <Array as="points">
              <mxPoint x="554" y="619" />
              <mxPoint x="554" y="618" />
              <mxPoint x="642" y="618" />
            </Array>
          </mxGeometry>
        </mxCell>
        <mxCell id="-tNWzfhsYgZVXzEqGD29-50" value="project-factory&lt;br&gt;&lt;span style=&quot;background-color: rgb(255, 255, 0);&quot;&gt;env_secrets&lt;br&gt;&lt;/span&gt;" style="shape=module;align=left;spacingLeft=20;align=center;verticalAlign=top;whiteSpace=wrap;html=1;fillColor=#FFCCE6;" vertex="1" parent="1">
          <mxGeometry x="639.5699999999999" y="687" width="125" height="40" as="geometry" />
        </mxCell>
        <mxCell id="-tNWzfhsYgZVXzEqGD29-51" value="Hardcoded billing acct ID, etc" style="rounded=0;whiteSpace=wrap;html=1;fillColor=#ffe6cc;strokeColor=none;" vertex="1" parent="1">
          <mxGeometry x="628" y="652" width="160.14" height="34" as="geometry" />
        </mxCell>
        <mxCell id="-tNWzfhsYgZVXzEqGD29-52" value="1" style="endArrow=open;html=1;endSize=12;startArrow=diamondThin;startSize=14;startFill=1;edgeStyle=orthogonalEdgeStyle;align=left;verticalAlign=bottom;rounded=0;exitX=1;exitY=0.5;exitDx=0;exitDy=0;" edge="1" parent="1">
          <mxGeometry x="-1" y="3" relative="1" as="geometry">
            <mxPoint x="514" y="712" as="sourcePoint" />
            <mxPoint x="642" y="711" as="targetPoint" />
            <Array as="points">
              <mxPoint x="554" y="712" />
              <mxPoint x="554" y="711" />
              <mxPoint x="642" y="711" />
            </Array>
          </mxGeometry>
        </mxCell>
        <mxCell id="-tNWzfhsYgZVXzEqGD29-53" value="" style="rounded=0;whiteSpace=wrap;html=1;fillColor=none;dashed=1;dashPattern=12 12;" vertex="1" parent="1">
          <mxGeometry x="104" y="52" width="890" height="730" as="geometry" />
        </mxCell>
        <mxCell id="-tNWzfhsYgZVXzEqGD29-54" value="1" style="endArrow=open;html=1;endSize=12;startArrow=diamondThin;startSize=14;startFill=1;edgeStyle=orthogonalEdgeStyle;align=left;verticalAlign=bottom;rounded=0;exitX=1;exitY=0.5;exitDx=0;exitDy=0;" edge="1" parent="1" source="-tNWzfhsYgZVXzEqGD29-10">
          <mxGeometry x="-1" y="3" relative="1" as="geometry">
            <mxPoint x="648.5" y="167" as="sourcePoint" />
            <mxPoint x="649" y="228" as="targetPoint" />
            <Array as="points">
              <mxPoint x="649" y="193" />
            </Array>
          </mxGeometry>
        </mxCell>
        <mxCell id="-tNWzfhsYgZVXzEqGD29-55" value="1" style="endArrow=open;html=1;endSize=12;startArrow=diamondThin;startSize=14;startFill=1;edgeStyle=orthogonalEdgeStyle;align=left;verticalAlign=bottom;rounded=0;" edge="1" parent="1">
          <mxGeometry x="-1" y="3" relative="1" as="geometry">
            <mxPoint x="414" y="122" as="sourcePoint" />
            <mxPoint x="415" y="172" as="targetPoint" />
            <Array as="points">
              <mxPoint x="414" y="142" />
              <mxPoint x="414" y="372" />
            </Array>
          </mxGeometry>
        </mxCell>
        <mxCell id="-tNWzfhsYgZVXzEqGD29-56" value="1" style="endArrow=open;html=1;endSize=12;startArrow=diamondThin;startSize=14;startFill=1;edgeStyle=orthogonalEdgeStyle;align=left;verticalAlign=bottom;rounded=0;entryX=0;entryY=0;entryDx=0;entryDy=23;entryPerimeter=0;" edge="1" parent="1" target="-tNWzfhsYgZVXzEqGD29-5">
          <mxGeometry x="-1" y="3" relative="1" as="geometry">
            <mxPoint x="234" y="102" as="sourcePoint" />
            <mxPoint x="364" y="102" as="targetPoint" />
            <Array as="points">
              <mxPoint x="244" y="102" />
              <mxPoint x="244" y="104" />
              <mxPoint x="374" y="104" />
            </Array>
          </mxGeometry>
        </mxCell>
        <mxCell id="-tNWzfhsYgZVXzEqGD29-58" value="" style="rounded=0;whiteSpace=wrap;html=1;fillColor=none;dashed=1;dashPattern=12 12;" vertex="1" parent="1">
          <mxGeometry x="354" y="230" width="610" height="532" as="geometry" />
        </mxCell>
      </root>
    </mxGraphModel>
  </diagram>
</mxfile>
